{
  "accessors": [
    {
      "bufferView": 2,
      "componentType": 5126,
      "count": 127,
      "max": [
        0.4656027555465698,
        0.4696185886859894,
        1.0950570106506348
      ],
      "min": [
        -0.4641498029232025,
        -0.45487529039382935,
        -1.44284987449646
      ],
      "type": "VEC3"
    },
    {
      "bufferView": 2,
      "byteOffset": 1524,
      "componentType": 5126,
      "count": 127,
      "max": [
        0.9968928694725037,
        0.9991130232810974,
        0.9999088644981384
      ],
      "min": [
        -0.9998298287391663,
        -0.997232973575592,
        -0.964266836643219
      ],
      "type": "VEC3"
    },
    {
      "bufferView": 3,
      "componentType": 5126,
      "count": 127,
      "max": [
        0.8845381140708923,
        0.4499262571334839,
        0.9960058331489563,
        1.0
      ],
      "min": [
        -0.6791737675666809,
        -0.9856345653533936,
        -0.9919466972351074,
        1.0
      ],
      "type": "VEC4"
    },
    {
      "bufferView": 1,
      "componentType": 5126,
      "count": 127,
      "max": [
        0.9954556226730347,
        0.5707506537437439
      ],
      "min": [
        0.003905387595295906,
        0.0039021968841552734
      ],
      "type": "VEC2"
    },
    {
      "bufferView": 0,
      "componentType": 5125,
      "count": 276,
      "type": "SCALAR"
    },
    {
      "bufferView": 2,
      "byteOffset": 3048,
      "componentType": 5126,
      "count": 78,
      "max": [
        1.7067099809646606,
        1.6925309896469116,
        10.25811767578125
      ],
      "min": [
        -1.7767667770385742,
        -1.8177516460418701,
        0.14443229138851166
      ],
      "type": "VEC3"
    },
    {
      "bufferView": 2,
      "byteOffset": 3984,
      "componentType": 5126,
      "count": 78,
      "max": [
        0.9999575018882751,
        0.9997521638870239,
        0.7024692296981812
      ],
      "min": [
        -0.9996814727783203,
        -0.9998452663421631,
        -0.999752402305603
      ],
      "type": "VEC3"
    },
    {
      "bufferView": 3,
      "byteOffset": 2032,
      "componentType": 5126,
      "count": 78,
      "max": [
        0.859036386013031,
        0.6009646058082581,
        0.9942206740379333,
        1.0
      ],
      "min": [
        -0.8844738602638245,
        -0.5356265306472778,
        -0.9956330060958862,
        1.0
      ],
      "type": "VEC4"
    },
    {
      "bufferView": 1,
      "byteOffset": 1016,
      "componentType": 5126,
      "count": 78,
      "max": [
        0.9930703639984131,
        0.5745032429695129
      ],
      "min": [
        0.005278348922729492,
        0.003906907048076391
      ],
      "type": "VEC2"
    },
    {
      "bufferView": 0,
      "byteOffset": 1104,
      "componentType": 5125,
      "count": 162,
      "type": "SCALAR"
    },
    {
      "bufferView": 2,
      "byteOffset": 4920,
      "componentType": 5126,
      "count": 85,
      "max": [
        3.095848321914673,
        2.734466552734375,
        13.465032577514648
      ],
      "min": [
        -2.376974105834961,
        -2.760568618774414,
        -9.760364532470703
      ],
      "type": "VEC3"
    },
    {
      "bufferView": 2,
      "byteOffset": 5940,
      "componentType": 5126,
      "count": 85,
      "max": [
        0.9992755651473999,
        0.9991640448570251,
        0.7349555492401123
      ],
      "min": [
        -0.9988763928413391,
        -0.9993937015533447,
        -0.9598170518875122
      ],
      "type": "VEC3"
    },
    {
      "bufferView": 3,
      "byteOffset": 3280,
      "componentType": 5126,
      "count": 85,
      "max": [
        0.6801484227180481,
        0.24486508965492249,
        0.9957596659660339,
        1.0
      ],
      "min": [
        -0.9071831703186035,
        -0.49234649538993835,
        -0.9981858134269714,
        1.0
      ],
      "type": "VEC4"
    },
    {
      "bufferView": 1,
      "byteOffset": 1640,
      "componentType": 5126,
      "count": 85,
      "max": [
        0.9948680400848389,
        0.5718019604682922
      ],
      "min": [
        0.004605901427567005,
        0.003903962206095457
      ],
      "type": "VEC2"
    },
    {
      "bufferView": 0,
      "byteOffset": 1752,
      "componentType": 5125,
      "count": 198,
      "type": "SCALAR"
    },
    {
      "bufferView": 2,
      "byteOffset": 6960,
      "componentType": 5126,
      "count": 72,
      "max": [
        1.03866446018219,
        1.0673011541366577,
        5.697659015655518
      ],
      "min": [
        -1.0137968063354492,
        -1.0,
        -1.4006989002227783
      ],
      "type": "VEC3"
    },
    {
      "bufferView": 2,
      "byteOffset": 7824,
      "componentType": 5126,
      "count": 72,
      "max": [
        0.9997724294662476,
        0.999915599822998,
        0.9650000929832458
      ],
      "min": [
        -0.999969482421875,
        -0.9999707341194153,
        -0.9997508525848389
      ],
      "type": "VEC3"
    },
    {
      "bufferView": 3,
      "byteOffset": 4640,
      "componentType": 5126,
      "count": 72,
      "max": [
        0.9991204142570496,
        0.9796352386474609,
        0.999644935131073,
        1.0
      ],
      "min": [
        -0.9272611141204834,
        -0.9995377063751221,
        -0.9998112320899963,
        1.0
      ],
      "type": "VEC4"
    },
    {
      "bufferView": 1,
      "byteOffset": 2320,
      "componentType": 5126,
      "count": 72,
      "max": [
        0.9943510890007019,
        0.5648266673088074
      ],
      "min": [
        0.006260760128498077,
        0.08194275945425034
      ],
      "type": "VEC2"
    },
    {
      "bufferView": 0,
      "byteOffset": 2544,
      "componentType": 5125,
      "count": 144,
      "type": "SCALAR"
    },
    {
      "bufferView": 2,
      "byteOffset": 8688,
      "componentType": 5126,
      "count": 91,
      "max": [
        1.5841751098632813,
        1.4247161149978638,
        6.773965835571289
      ],
      "min": [
        -1.5745391845703125,
        -1.7556356191635132,
        0.17946915328502655
      ],
      "type": "VEC3"
    },
    {
      "bufferView": 2,
      "byteOffset": 9780,
      "componentType": 5126,
      "count": 91,
      "max": [
        0.9998255372047424,
        0.9995003938674927,
        0.8764627575874329
      ],
      "min": [
        -0.9998456239700317,
        -0.9998614192008972,
        -0.9996243119239807
      ],
      "type": "VEC3"
    },
    {
      "bufferView": 3,
      "byteOffset": 5792,
      "componentType": 5126,
      "count": 91,
      "max": [
        0.9604161977767944,
        0.6711753606796265,
        0.9996669888496399,
        1.0
      ],
      "min": [
        -0.9871943593025208,
        -0.47589409351348877,
        -0.9494391083717346,
        1.0
      ],
      "type": "VEC4"
    },
    {
      "bufferView": 1,
      "byteOffset": 2896,
      "componentType": 5126,
      "count": 91,
      "max": [
        0.9930903315544128,
        0.574118971824646
      ],
      "min": [
        0.0046466318890452385,
        0.003907858394086361
      ],
      "type": "VEC2"
    },
    {
      "bufferView": 0,
      "byteOffset": 3120,
      "componentType": 5125,
      "count": 216,
      "type": "SCALAR"
    }
  ],
  "asset": {
    "extras": {
      "author": "KZNYKN (https://sketchfab.com/KZNYKN)",
      "license": "CC-BY-4.0 (http://creativecommons.org/licenses/by/4.0/)",
      "source": "https://sketchfab.com/3d-models/fantasy-stylized-crystals-86fb737b2e49406f98e0e8022c7635b4",
      "title": "Fantasy Stylized Crystals"
    },
    "generator": "Sketchfab-12.67.0",
    "version": "2.0"
  },
  "bufferViews": [
    {
      "buffer": 0,
      "byteLength": 3984,
      "name": "floatBufferViews",
      "target": 34963
    },
    {
      "buffer": 0,
      "byteLength": 3624,
      "byteOffset": 3984,
      "byteStride": 8,
      "name": "floatBufferViews",
      "target": 34962
    },
    {
      "buffer": 0,
      "byteLength": 10872,
      "byteOffset": 7608,
      "byteStride": 12,
      "name": "floatBufferViews",
      "target": 34962
    },
    {
      "buffer": 0,
      "byteLength": 7248,
      "byteOffset": 18480,
      "byteStride": 16,
      "name": "floatBufferViews",
      "target": 34962
    }
  ],
  "buffers": [
    {
      "byteLength": 25728,
      "uri": "scene.bin"
    }
  ],
  "images": [
    {
      "uri": "textures/TD_Checker_baseColor.png"
    },
    {
      "uri": "textures/TD_Checker_metallicRoughness.png"
    },
    {
      "uri": "textures/TD_Checker_emissive.png"
    },
    {
      "uri": "textures/TD_Checker_normal.png"
    }
  ],
  "materials": [
    {
      "doubleSided": true,
      "emissiveFactor": [
        1.0,
        1.0,
        1.0
      ],
      "emissiveTexture": {
        "index": 2
      },
      "name": "TD_Checker",
      "normalTexture": {
        "index": 3
      },
      "occlusionTexture": {
        "index": 1
      },
      "pbrMetallicRoughness": {
        "baseColorTexture": {
          "index": 0
        },
        "metallicRoughnessTexture": {
          "index": 1
        }
      }
    }
  ],
  "meshes": [
    {
      "name": "crystal_1_low_TD_Checker_0",
      "primitives": [
        {
          "attributes": {
            "NORMAL": 1,
            "POSITION": 0,
            "TANGENT": 2,
            "TEXCOORD_0": 3
          },
          "indices": 4,
          "material": 0,
          "mode": 4
        }
      ]
    },
    {
      "name": "crystal_2_low_TD_Checker_0",
      "primitives": [
        {
          "attributes": {
            "NORMAL": 6,
            "POSITION": 5,
            "TANGENT": 7,
            "TEXCOORD_0": 8
          },
          "indices": 9,
          "material": 0,
          "mode": 4
        }
      ]
    },
    {
      "name": "crystal_3_low_TD_Checker_0",
      "primitives": [
        {
          "attributes": {
            "NORMAL": 11,
            "POSITION": 10,
            "TANGENT": 12,
            "TEXCOORD_0": 13
          },
          "indices": 14,
          "material": 0,
          "mode": 4
        }
      ]
    },
    {
      "name": "crystal_4_low_TD_Checker_0",
      "primitives": [
        {
          "attributes": {
            "NORMAL": 16,
            "POSITION": 15,
            "TANGENT": 17,
            "TEXCOORD_0": 18
          },
          "indices": 19,
          "material": 0,
          "mode": 4
        }
      ]
    },
    {
      "name": "crystal_5_low_TD_Checker_0",
      "primitives": [
        {
          "attributes": {
            "NORMAL": 21,
            "POSITION": 20,
            "TANGENT": 22,
            "TEXCOORD_0": 23
          },
          "indices": 24,
          "material": 0,
          "mode": 4
        }
      ]
    }
  ],
  "nodes": [
    {
      "children": [
        1
      ],
      "matrix": [
        1.0,
        0.0,
        0.0,
        0.0,
        0.0,
        2.220446049250313e-16,
        -1.0,
        0.0,
        0.0,
        1.0,
        2.220446049250313e-16,
        0.0,
        0.0,
        0.0,
        0.0,
        1.0
      ],
      "name": "Sketchfab_model"
    },
    {
      "children": [
        2
      ],
      "matrix": [
        0.009999999776482582,
        0.0,
        0.0,
        0.0,
        0.0,
        0.0,
        0.009999999776482582,
        0.0,
        0.0,
        -0.009999999776482582,
        0.0,
        0.0,
        0.0,
        0.0,
        0.0,
        1.0
      ],
      "name": "1675e3a6cb26447283b7346065b41368.fbx"
    },
    {
      "children": [
        3,
        5,
        7,
        9,
        11
      ],
      "name": "RootNode"
    },
    {
      "children": [
        4
      ],
      "matrix": [
        100.0,
        0.0,
        0.0,
        0.0,
        0.0,
        -1.629206793918314e-05,
        -99.99999999999868,
        0.0,
        0.0,
        99.99999999999868,
        -1.629206793918314e-05,
        0.0,
        0.4253629446029663,
        104.0557632446289,
        360.3596496582031,
        1.0
      ],
      "name": "crystal_1_low"
    },
    {
      "mesh": 0,
      "name": "crystal_1_low_TD_Checker_0"
    },
    {
      "children": [
        6
      ],
      "matrix": [
        19.832069396972656,
        0.0,
        0.0,
        0.0,
        0.0,
        -3.2310542199007335e-06,
        -19.832069396972393,
        0.0,
        0.0,
        19.832069396972393,
        -3.2310542199007335e-06,
        0.0,
        0.0,
        -66.6868896484375,
        240.38340759277344,
        1.0
      ],
      "name": "crystal_2_low"
    },
    {
      "mesh": 1,
      "name": "crystal_2_low_TD_Checker_0"
    },
    {
      "children": [
        8
      ],
      "matrix": [
        13.826531410217285,
        0.0,
        0.0,
        0.0,
        -0.0,
        -2.252627890985097e-06,
        -13.826531410217102,
        0.0,
        0.0,
        13.826531410217102,
        -2.252627890985097e-06,
        0.0,
        -4.9311017990112305,
        80.82726287841797,
        137.02134704589844,
        1.0
      ],
      "name": "crystal_3_low"
    },
    {
      "mesh": 2,
      "name": "crystal_3_low_TD_Checker_0"
    },
    {
      "children": [
        10
      ],
      "matrix": [
        22.086334228515625,
        0.0,
        0.0,
        0.0,
        0.0,
        -3.5983205777848263e-06,
        -22.086334228515334,
        0.0,
        0.0,
        22.086334228515334,
        -3.5983205777848263e-06,
        0.0,
        0.0,
        0.0,
        40.67269515991211,
        1.0
      ],
      "name": "crystal_4_low"
    },
    {
      "mesh": 3,
      "name": "crystal_4_low_TD_Checker_0"
    },
    {
      "children": [
        12
      ],
      "matrix": [
        26.140033721923828,
        0.0,
        0.0,
        0.0,
        0.0,
        -4.258752053301214e-06,
        -26.140033721923484,
        0.0,
        0.0,
        26.140033721923484,
        -4.258752053301214e-06,
        0.0,
        0.0,
        -55.780704498291016,
        -83.58190155029297,
        1.0
      ],
      "name": "crystal_5_low"
    },
    {
      "mesh": 4,
      "name": "crystal_5_low_TD_Checker_0"
    }
  ],
  "samplers": [
    {
      "magFilter": 9729,
      "minFilter": 9987,
      "wrapS": 10497,
      "wrapT": 10497
    }
  ],
  "scene": 0,
  "scenes": [
    {
      "name": "Sketchfab_Scene",
      "nodes": [
        0
      ]
    }
  ],
  "textures": [
    {
      "sampler": 0,
      "source": 0
    },
    {
      "sampler": 0,
      "source": 1
    },
    {
      "sampler": 0,
      "source": 2
    },
    {
      "sampler": 0,
      "source": 3
    }
  ]
}
