<?xml version="1.0" standalone="no"?>
<!DOCTYPE svg PUBLIC "-//W3C//DTD SVG 20010904//EN"
 "http://www.w3.org/TR/2001/REC-SVG-20010904/DTD/svg10.dtd">
<svg version="1.0" xmlns="http://www.w3.org/2000/svg"
 width="1024.000000pt" height="1024.000000pt" viewBox="0 0 1024.000000 1024.000000"
 preserveAspectRatio="xMidYMid meet">
<metadata>
Created by potrace 1.14, written by Peter Selinger 2001-2017
</metadata>
<g transform="translate(0.000000,1024.000000) scale(0.100000,-0.100000)"
fill="#000000" stroke="none">
<path d="M720 6985 l0 -2535 360 0 360 0 0 2175 0 2175 4040 0 4040 0 0 360 0
360 -4400 0 -4400 0 0 -2535z"/>
<path d="M2160 5120 l0 -2960 1280 0 1280 0 0 2960 0 2960 -1280 0 -1280 0 0
-2960z"/>
<path d="M5520 5120 l0 -2960 1240 0 1240 0 0 2960 0 2960 -1240 0 -1240 0 0
-2960z"/>
<path d="M8720 3615 l0 -2175 -4000 0 -4000 0 0 -360 0 -360 4400 0 4400 0 0
2535 0 2535 -400 0 -400 0 0 -2175z"/>
</g>
</svg>
