<?xml version="1.0" standalone="no"?>
<!DOCTYPE svg PUBLIC "-//W3C//DTD SVG 20010904//EN"
 "http://www.w3.org/TR/2001/REC-SVG-20010904/DTD/svg10.dtd">
<svg version="1.0" xmlns="http://www.w3.org/2000/svg"
 width="512.000000pt" height="512.000000pt" viewBox="0 0 512.000000 512.000000"
 preserveAspectRatio="xMidYMid meet">
<metadata>
Created by potrace 1.14, written by Peter Selinger 2001-2017
</metadata>
<g transform="translate(0.000000,512.000000) scale(0.100000,-0.100000)"
fill="#000000" stroke="none">
<path d="M3290 4780 l0 -80 -75 0 -75 0 0 -75 0 -75 -70 0 -70 0 0 -70 0 -70
-70 0 -70 0 0 -70 0 -70 -70 0 -70 0 0 -70 0 -70 -75 0 -75 0 0 -75 0 -75 -75
0 -75 0 0 -575 0 -575 -75 0 -75 0 0 215 0 215 -65 0 -65 0 0 290 0 290 -75 0
-75 0 0 70 0 70 -70 0 -70 0 0 75 0 75 -75 0 -75 0 0 70 0 70 -70 0 -70 0 0
-70 0 -70 -70 0 -70 0 0 -145 0 -145 -70 0 -70 0 0 -70 0 -70 -75 0 -75 0 0
-220 0 -220 -70 0 -70 0 0 -70 0 -70 -70 0 -70 0 0 -70 0 -70 -75 0 -75 0 0
-145 0 -145 -70 0 -70 0 0 -220 0 -220 70 0 70 0 0 -70 0 -70 -145 0 -145 0 0
-430 0 -430 75 0 75 0 0 -70 0 -70 70 0 70 0 0 -145 0 -145 145 0 145 0 0 -70
0 -70 145 0 145 0 0 -75 0 -75 70 0 70 0 0 -70 0 -70 140 0 140 0 0 -65 0 -65
795 0 795 0 0 65 0 65 70 0 70 0 0 70 0 70 215 0 215 0 0 75 0 75 75 0 75 0 0
70 0 70 140 0 140 0 0 70 0 70 75 0 75 0 0 75 0 75 70 0 70 0 0 70 0 70 65 0
65 0 0 360 0 360 -425 0 -425 0 0 140 0 140 75 0 75 0 0 75 0 75 70 0 70 0 0
145 0 145 70 0 70 0 0 215 0 215 -70 0 -70 0 0 70 0 70 70 0 70 0 0 75 0 75
-70 0 -70 0 0 70 0 70 -70 0 -70 0 0 215 0 215 -75 0 -75 0 0 145 0 145 -70 0
-70 0 0 140 0 140 -70 0 -70 0 0 75 0 75 -75 0 -75 0 0 80 0 80 -70 0 -70 0 0
-80z"/>
</g>
</svg>
