{
  "accessors": [
    {
      "bufferView": 2,
      "componentType": 5126,
      "count": 457,
      "max": [
        1.2285804748535156,
        1.8725306987762451,
        1.1581958532333374
      ],
      "min": [
        -1.2354344129562378,
        -2.091331720352173,
        -1.2048639059066772
      ],
      "type": "VEC3"
    },
    {
      "bufferView": 2,
      "byteOffset": 5484,
      "componentType": 5126,
      "count": 457,
      "max": [
        0.9873868227005005,
        0.9838795065879822,
        0.994217574596405
      ],
      "min": [
        -0.9984252452850342,
        -0.9998190402984619,
        -0.9996644258499146
      ],
      "type": "VEC3"
    },
    {
      "bufferView": 3,
      "componentType": 5126,
      "count": 457,
      "max": [
        0.9546668529510498,
        0.998872697353363,
        0.9927328824996948,
        1.0
      ],
      "min": [
        -0.9591391682624817,
        -0.9911838173866272,
        -0.9608125686645508,
        1.0
      ],
      "type": "VEC4"
    },
    {
      "bufferView": 1,
      "componentType": 5126,
      "count": 457,
      "max": [
        0.9915635585784912,
        0.9801822900772095
      ],
      "min": [
        0.012004977092146873,
        0.008737437427043915
      ],
      "type": "VEC2"
    },
    {
      "bufferView": 0,
      "componentType": 5125,
      "count": 2406,
      "type": "SCALAR"
    }
  ],
  "asset": {
    "extras": {
      "author": "a_wilczek (https://sketchfab.com/a_wilczek)",
      "license": "CC-BY-4.0 (http://creativecommons.org/licenses/by/4.0/)",
      "source": "https://sketchfab.com/3d-models/stylized-mushroom-4-7262b8835a114d36a8d7e170002479e1",
      "title": "Stylized Mushroom (4)"
    },
    "generator": "Sketchfab-15.24.0",
    "version": "2.0"
  },
  "bufferViews": [
    {
      "buffer": 0,
      "byteLength": 9624,
      "name": "floatBufferViews",
      "target": 34963
    },
    {
      "buffer": 0,
      "byteLength": 3656,
      "byteOffset": 9624,
      "byteStride": 8,
      "name": "floatBufferViews",
      "target": 34962
    },
    {
      "buffer": 0,
      "byteLength": 10968,
      "byteOffset": 13280,
      "byteStride": 12,
      "name": "floatBufferViews",
      "target": 34962
    },
    {
      "buffer": 0,
      "byteLength": 7312,
      "byteOffset": 24248,
      "byteStride": 16,
      "name": "floatBufferViews",
      "target": 34962
    }
  ],
  "buffers": [
    {
      "byteLength": 31560,
      "uri": "scene.bin"
    }
  ],
  "extensionsUsed": [
    "KHR_materials_emissive_strength"
  ],
  "images": [
    {
      "uri": "textures/Default_OBJ.028_baseColor.png"
    },
    {
      "uri": "textures/Default_OBJ.028_metallicRoughness.png"
    },
    {
      "uri": "textures/Default_OBJ.028_emissive.png"
    },
    {
      "uri": "textures/Default_OBJ.028_normal.png"
    }
  ],
  "materials": [
    {
      "doubleSided": true,
      "emissiveFactor": [
        1.0,
        1.0,
        1.0
      ],
      "emissiveTexture": {
        "index": 2
      },
      "extensions": {
        "KHR_materials_emissive_strength": {
          "emissiveStrength": 2.300959393400056
        }
      },
      "name": "Default_OBJ.028",
      "normalTexture": {
        "index": 3
      },
      "occlusionTexture": {
        "index": 1
      },
      "pbrMetallicRoughness": {
        "baseColorTexture": {
          "index": 0
        },
        "metallicFactor": 0.0,
        "metallicRoughnessTexture": {
          "index": 1
        }
      }
    }
  ],
  "meshes": [
    {
      "name": "Retopo_grzyb4.002_Default OBJ.028_0",
      "primitives": [
        {
          "attributes": {
            "NORMAL": 1,
            "POSITION": 0,
            "TANGENT": 2,
            "TEXCOORD_0": 3
          },
          "indices": 4,
          "material": 0,
          "mode": 4
        }
      ]
    }
  ],
  "nodes": [
    {
      "children": [
        1
      ],
      "matrix": [
        1.0,
        0.0,
        0.0,
        0.0,
        0.0,
        2.220446049250313e-16,
        -1.0,
        0.0,
        0.0,
        1.0,
        2.220446049250313e-16,
        0.0,
        0.0,
        0.0,
        0.0,
        1.0
      ],
      "name": "Sketchfab_model"
    },
    {
      "children": [
        2
      ],
      "matrix": [
        0.009999999776482582,
        0.0,
        0.0,
        0.0,
        0.0,
        0.0,
        0.009999999776482582,
        0.0,
        0.0,
        -0.009999999776482582,
        0.0,
        0.0,
        0.0,
        0.0,
        0.0,
        1.0
      ],
      "name": "0b6a1eed59e0447b9f30b358e1c59ca4.fbx"
    },
    {
      "children": [
        3
      ],
      "name": "RootNode"
    },
    {
      "children": [
        4
      ],
      "matrix": [
        11.157570838928223,
        0.0,
        0.0,
        0.0,
        0.0,
        11.157570838928073,
        1.8177991031974523e-06,
        0.0,
        0.0,
        -1.8177991031974523e-06,
        11.157570838928073,
        0.0,
        -0.2709190547466278,
        24.78805923461914,
        -1.508293867111206,
        1.0
      ],
      "name": "Retopo_grzyb4.002"
    },
    {
      "mesh": 0,
      "name": "Retopo_grzyb4.002_Default OBJ.028_0"
    }
  ],
  "samplers": [
    {
      "magFilter": 9729,
      "minFilter": 9987,
      "wrapS": 10497,
      "wrapT": 10497
    }
  ],
  "scene": 0,
  "scenes": [
    {
      "name": "Sketchfab_Scene",
      "nodes": [
        0
      ]
    }
  ],
  "textures": [
    {
      "sampler": 0,
      "source": 0
    },
    {
      "sampler": 0,
      "source": 1
    },
    {
      "sampler": 0,
      "source": 2
    },
    {
      "sampler": 0,
      "source": 3
    }
  ]
}
